<svg width="16" height="324" viewBox="0 0 16 324" fill="none" xmlns="http://www.w3.org/2000/svg">
<line x1="7.5" x2="7.5" y2="141.279" stroke="white"/>
<line x1="7.5" y1="229.814" x2="7.5" y2="324" stroke="white"/>
<path d="M9.07955 160.022L8.82386 159.119C8.97443 159.062 9.12074 158.978 9.26278 158.867C9.40767 158.759 9.52699 158.611 9.62074 158.424C9.71449 158.236 9.76136 157.996 9.76136 157.704C9.76136 157.303 9.66903 156.969 9.48438 156.702C9.30256 156.438 9.07102 156.306 8.78977 156.306C8.53977 156.306 8.34233 156.397 8.19744 156.579C8.05256 156.761 7.93182 157.045 7.83523 157.431L7.59659 158.403C7.45455 158.988 7.23722 159.424 6.9446 159.711C6.65483 159.998 6.28125 160.141 5.82386 160.141C5.44886 160.141 5.11364 160.033 4.81818 159.817C4.52273 159.604 4.28977 159.306 4.11932 158.923C3.94886 158.539 3.86364 158.093 3.86364 157.584C3.86364 156.917 4.00852 156.364 4.2983 155.927C4.58807 155.489 5.01136 155.212 5.56818 155.096L5.80682 156.05C5.45455 156.141 5.19034 156.313 5.0142 156.566C4.83807 156.822 4.75 157.155 4.75 157.567C4.75 158.036 4.84943 158.408 5.0483 158.684C5.25 158.962 5.49148 159.101 5.77273 159.101C6 159.101 6.19034 159.022 6.34375 158.863C6.5 158.704 6.61648 158.459 6.69318 158.13L6.94886 157.039C7.09091 156.44 7.31108 155.999 7.60938 155.718C7.91051 155.44 8.28693 155.3 8.73864 155.3C9.10795 155.3 9.43466 155.404 9.71875 155.611C10.0028 155.822 10.2259 156.107 10.3878 156.468C10.5497 156.832 10.6307 157.244 10.6307 157.704C10.6307 158.351 10.4886 158.86 10.2045 159.229C9.92045 159.601 9.54545 159.866 9.07955 160.022ZM3.86364 170.434C3.86364 169.821 4.00852 169.292 4.2983 168.849C4.58807 168.406 4.98722 168.065 5.49574 167.826C6.00426 167.588 6.58523 167.468 7.23864 167.468C7.90341 167.468 8.49006 167.59 8.99858 167.835C9.50994 168.082 9.90909 168.426 10.196 168.866C10.4858 169.309 10.6307 169.826 10.6307 170.417C10.6307 170.877 10.5455 171.292 10.375 171.661C10.2045 172.031 9.96591 172.333 9.65909 172.569C9.35227 172.805 8.99432 172.951 8.58523 173.008V172.002C8.88352 171.926 9.14773 171.755 9.37784 171.491C9.6108 171.23 9.72727 170.877 9.72727 170.434C9.72727 170.042 9.625 169.698 9.42045 169.403C9.21875 169.11 8.93324 168.882 8.56392 168.717C8.19744 168.555 7.76705 168.474 7.27273 168.474C6.76705 168.474 6.3267 168.554 5.9517 168.713C5.5767 168.875 5.28551 169.102 5.07813 169.394C4.87074 169.69 4.76705 170.036 4.76705 170.434C4.76705 170.696 4.8125 170.933 4.90341 171.146C4.99432 171.359 5.125 171.539 5.29545 171.687C5.46591 171.835 5.67045 171.94 5.90909 172.002V173.008C5.52273 172.951 5.17472 172.811 4.86506 172.586C4.55824 172.365 4.31392 172.071 4.1321 171.704C3.95313 171.34 3.86364 170.917 3.86364 170.434ZM4 180.598H10.5455V181.57H9.55682V181.638C9.88068 181.757 10.1435 181.973 10.3452 182.286C10.5469 182.598 10.6477 182.951 10.6477 183.343C10.6477 183.416 10.6463 183.509 10.6435 183.62C10.6406 183.73 10.6364 183.814 10.6307 183.871H9.60795C9.61648 183.837 9.62926 183.759 9.64631 183.637C9.66619 183.517 9.67614 183.391 9.67614 183.257C9.67614 182.939 9.60938 182.655 9.47585 182.405C9.34517 182.158 9.16335 181.962 8.9304 181.817C8.70028 181.675 8.4375 181.604 8.14205 181.604H4V180.598ZM3.86364 193.643C3.86364 193.052 4.00426 192.534 4.28551 192.088C4.56676 191.644 4.96023 191.298 5.46591 191.048C5.97159 190.801 6.5625 190.677 7.23864 190.677C7.92045 190.677 8.51563 190.801 9.02415 191.048C9.53267 191.298 9.92756 191.644 10.2088 192.088C10.4901 192.534 10.6307 193.052 10.6307 193.643C10.6307 194.234 10.4901 194.751 10.2088 195.194C9.92756 195.64 9.53267 195.987 9.02415 196.234C8.51563 196.484 7.92045 196.609 7.23864 196.609C6.5625 196.609 5.97159 196.484 5.46591 196.234C4.96023 195.987 4.56676 195.64 4.28551 195.194C4.00426 194.751 3.86364 194.234 3.86364 193.643ZM4.76705 193.643C4.76705 194.092 4.8821 194.461 5.11222 194.751C5.34233 195.041 5.64489 195.255 6.01989 195.394C6.39489 195.534 6.80114 195.603 7.23864 195.603C7.67614 195.603 8.08381 195.534 8.46165 195.394C8.83949 195.255 9.14489 195.041 9.37784 194.751C9.6108 194.461 9.72727 194.092 9.72727 193.643C9.72727 193.194 9.6108 192.825 9.37784 192.535C9.14489 192.245 8.83949 192.031 8.46165 191.892C8.08381 191.752 7.67614 191.683 7.23864 191.683C6.80114 191.683 6.39489 191.752 6.01989 191.892C5.64489 192.031 5.34233 192.245 5.11222 192.535C4.8821 192.825 4.76705 193.194 4.76705 193.643ZM12.7273 205.27H4V204.264H12.7273V205.27ZM12.7273 214.237H4V213.232H12.7273V214.237Z" fill="white"/>
</svg>
